<svg width="53" height="43" viewBox="0 0 53 43" fill="none" xmlns="http://www.w3.org/2000/svg">
<path d="M37.0391 13.4769C37.3881 13.4769 37.7371 13.4888 38.0803 13.5066C36.6368 5.85228 28.7155 0 19.1555 0C8.57797 0 0 7.17261 0 16.0224C0 20.8458 2.57931 25.1934 6.61982 28.1314C6.78648 28.2497 6.92239 28.4065 7.01608 28.5887C7.10977 28.7709 7.15851 28.973 7.15816 29.1781C7.15816 29.3209 7.12858 29.4517 7.09309 29.5885C6.76772 30.7958 6.25304 32.7288 6.22938 32.818C6.18797 32.9726 6.12881 33.1272 6.12881 33.2878C6.12881 33.6387 6.41277 33.9301 6.76772 33.9301C6.90378 33.9301 7.01618 33.8766 7.1345 33.8112L11.3288 31.3787C11.6424 31.1943 11.9796 31.0813 12.3464 31.0813C12.5357 31.0813 12.725 31.1111 12.9084 31.1646C14.8665 31.7296 16.9785 32.0448 19.1614 32.0448C19.5163 32.0448 19.8654 32.0389 20.2144 32.021C19.7944 30.7721 19.5696 29.4577 19.5696 28.0957C19.5696 20.0191 27.3903 13.4769 37.0391 13.4769ZM25.5446 8.33236C26.9526 8.33236 28.1002 9.48022 28.1002 10.8957C28.1002 12.3112 26.9585 13.4591 25.5446 13.4591C24.1366 13.4591 22.9889 12.3112 22.9889 10.8957C22.9889 9.48022 24.1366 8.33236 25.5446 8.33236ZM12.7723 13.4591C11.3643 13.4591 10.2167 12.3112 10.2167 10.8957C10.2167 9.48022 11.3584 8.33236 12.7723 8.33236C14.1862 8.33236 15.3279 9.48022 15.3279 10.8957C15.3279 12.3112 14.1803 13.4591 12.7723 13.4591ZM47.4864 38.1766C50.8525 35.7263 53 32.1102 53 28.0838C53 20.709 45.8537 14.7318 37.0331 14.7318C28.2186 14.7318 21.0663 20.709 21.0663 28.0838C21.0663 35.4586 28.2126 41.4358 37.0331 41.4358C38.8552 41.4358 40.6181 41.1741 42.245 40.7043C42.3988 40.6567 42.5526 40.6329 42.7124 40.6329C43.02 40.6329 43.298 40.7281 43.5583 40.8768L47.0546 42.8989C47.1552 42.9584 47.2498 43 47.3622 43C47.4323 43.0006 47.5019 42.9872 47.5669 42.9606C47.6318 42.9341 47.6909 42.8949 47.7408 42.8454C47.7901 42.7952 47.8291 42.7358 47.8555 42.6705C47.8819 42.6051 47.8952 42.5352 47.8946 42.4647C47.8946 42.3339 47.8414 42.203 47.8118 42.0722C47.7941 42.0008 47.3622 40.3891 47.0901 39.378C47.0605 39.265 47.0368 39.152 47.0368 39.039C47.0427 38.6881 47.2202 38.3729 47.4864 38.1766ZM31.7207 25.9546C30.5435 25.9546 29.591 24.9971 29.591 23.8195C29.591 22.6419 30.5435 21.6844 31.7207 21.6844C32.898 21.6844 33.8504 22.6419 33.8504 23.8195C33.8504 24.9971 32.8921 25.9546 31.7207 25.9546ZM42.3633 25.9546C41.1861 25.9546 40.2336 24.9971 40.2336 23.8195C40.2336 22.6419 41.1861 21.6844 42.3633 21.6844C43.5406 21.6844 44.493 22.6419 44.493 23.8195C44.4902 24.3859 44.2647 24.9283 43.8658 25.3282C43.4668 25.7282 42.9267 25.9534 42.3633 25.9546Z" fill="#002A72"/>
</svg>
