<svg width="54" height="42" viewBox="0 0 54 42" fill="none" xmlns="http://www.w3.org/2000/svg">
<path d="M22.125 1C20.8321 1 19.5921 1.48346 18.6779 2.34401C17.7636 3.20457 17.25 4.37173 17.25 5.58874V7.11832H5.875C4.58207 7.11832 3.34209 7.60178 2.42785 8.46233C1.51361 9.32289 1 10.4901 1 11.7071L1 36.1804C1 37.3974 1.51361 38.5645 2.42785 39.4251C3.34209 40.2856 4.58207 40.7691 5.875 40.7691H48.125C49.4179 40.7691 50.6579 40.2856 51.5721 39.4251C52.4864 38.5645 53 37.3974 53 36.1804V11.7071C53 10.4901 52.4864 9.32289 51.5721 8.46233C50.6579 7.60178 49.4179 7.11832 48.125 7.11832H36.75V5.58874C36.75 4.37173 36.2364 3.20457 35.3221 2.34401C34.4079 1.48346 33.1679 1 31.875 1H22.125ZM22.125 4.05916H31.875C32.306 4.05916 32.7193 4.22031 33.024 4.50717C33.3288 4.79402 33.5 5.18307 33.5 5.58874V7.11832H20.5V5.58874C20.5 5.18307 20.6712 4.79402 20.976 4.50717C21.2807 4.22031 21.694 4.05916 22.125 4.05916ZM28.2545 25.2102L49.75 19.8169V36.1804C49.75 36.586 49.5788 36.9751 49.274 37.2619C48.9693 37.5488 48.556 37.7099 48.125 37.7099H5.875C5.44402 37.7099 5.0307 37.5488 4.72595 37.2619C4.4212 36.9751 4.25 36.586 4.25 36.1804V19.8138L25.7455 25.2102C26.5675 25.4163 27.4325 25.4163 28.2545 25.2102ZM5.875 10.1775H48.125C48.556 10.1775 48.9693 10.3386 49.274 10.6255C49.5788 10.9123 49.75 11.3014 49.75 11.7071V16.6507L27.4192 22.2551C27.1446 22.3241 26.8554 22.3241 26.5807 22.2551L4.25 16.6507V11.7071C4.25 11.3014 4.4212 10.9123 4.72595 10.6255C5.0307 10.3386 5.44402 10.1775 5.875 10.1775Z" fill="#002A72" stroke="#002A72"/>
</svg>
