<svg width="52" height="41" viewBox="0 0 52 41" fill="none" xmlns="http://www.w3.org/2000/svg">
<path d="M13.5786 19.3261C12.2168 19.3261 11.2784 18.7572 11.1983 17.8687H8.06836C8.11986 20.2201 10.1798 21.6776 13.4413 21.6776C16.823 21.6776 18.8772 20.1388 18.8772 17.587C18.8772 15.6473 17.7328 14.5583 15.1865 14.0923L13.5214 13.7889C12.1596 13.5343 11.5874 13.1442 11.5874 12.4777C11.5874 11.665 12.3484 11.1503 13.4985 11.1503C14.6486 11.1503 15.5184 11.7517 15.5927 12.6132H18.6254C18.5739 10.3539 16.4797 8.80432 13.4585 8.80432C10.3457 8.80432 8.32585 10.3701 8.32585 12.7595C8.32585 14.6829 9.5389 15.9019 11.9021 16.3246L13.6015 16.6442C15.0778 16.926 15.6385 17.289 15.6385 17.9662C15.6442 18.7627 14.8088 19.3261 13.5786 19.3261V19.3261Z" fill="#002A72"/>
<path d="M49.4378 0H1.83103C0.818241 0 0 0.774779 0 1.73377V28.6072C0 29.5662 0.818241 30.341 1.83103 30.341H23.5745V36.4092H13.7327C13.2292 36.4092 12.8172 36.7993 12.8172 37.2761V39.8767C12.8172 40.1151 13.0232 40.3102 13.275 40.3102H37.9939C38.2456 40.3102 38.4516 40.1151 38.4516 39.8767V37.2761C38.4516 36.7993 38.0396 36.4092 37.5361 36.4092H27.6943V30.341H49.4378C50.4506 30.341 51.2688 29.5662 51.2688 28.6072V1.73377C51.2688 0.774779 50.4506 0 49.4378 0ZM47.149 26.44H4.11982V3.90098H47.149V26.44Z" fill="#002A72"/>
<path d="M43.7437 18.7844H38.262V9.12945H34.9776V21.3471H43.7437V18.7844ZM26.6579 21.6776C27.4647 21.6776 28.2143 21.5693 28.8952 21.3634L29.6562 22.4632H32.706L31.121 20.101C32.3284 19.0174 33.0093 17.3324 33.0093 15.2356C33.0093 11.2642 30.5317 8.79895 26.6636 8.79895C22.7956 8.79895 20.3008 11.2533 20.3008 15.2356C20.2951 19.2287 22.7612 21.6776 26.6579 21.6776ZM26.6579 11.3834C28.466 11.3834 29.6734 12.8841 29.6734 15.2356C29.6734 16.1404 29.4674 16.8935 29.1012 17.4299L28.8036 17.056H26.0113L27.3503 19.0174C27.1271 19.0661 26.8925 19.0932 26.6522 19.0932C24.8383 19.0932 23.631 17.6033 23.631 15.2356C23.6367 12.8733 24.844 11.3834 26.6579 11.3834Z" fill="#002A72"/>
</svg>
